<svg width="65" height="62" viewBox="0 0 65 62" fill="none" xmlns="http://www.w3.org/2000/svg">
<rect width="65" height="62" rx="10" fill="#FFF4E0"/>
<path d="M45.2267 17.7467C44.2709 17.5821 43.3031 17.4973 42.3333 17.4934C39.0245 17.4906 35.7847 18.4395 33 20.2267C30.2082 18.4629 26.9689 17.5374 23.6667 17.56C22.6969 17.564 21.7291 17.6487 20.7733 17.8134C20.4603 17.8673 20.1768 18.0313 19.9739 18.2757C19.771 18.5202 19.6621 18.829 19.6667 19.1467V35.1467C19.6638 35.3426 19.7042 35.5367 19.7849 35.7153C19.8656 35.8938 19.9846 36.0524 20.1336 36.1797C20.2825 36.307 20.4577 36.3999 20.6466 36.4518C20.8355 36.5037 21.0336 36.5133 21.2267 36.48C23.1374 36.1492 25.0949 36.2041 26.9841 36.6415C28.8732 37.0788 30.6558 37.8898 32.2267 39.0267L32.3867 39.12H32.5333C32.6812 39.1816 32.8398 39.2134 33 39.2134C33.1602 39.2134 33.3188 39.1816 33.4667 39.12H33.6133L33.7733 39.0267C35.3333 37.8644 37.1107 37.0271 39.0002 36.5645C40.8897 36.1018 42.8529 36.0232 44.7733 36.3334C44.9664 36.3667 45.1645 36.357 45.3534 36.3051C45.5423 36.2532 45.7175 36.1603 45.8664 36.033C46.0154 35.9057 46.1344 35.7471 46.2151 35.5686C46.2958 35.3901 46.3362 35.1959 46.3333 35V19C46.3195 18.6962 46.2022 18.4063 46.0009 18.1783C45.7996 17.9504 45.5264 17.7981 45.2267 17.7467ZM31.6667 35.4667C29.1998 34.1689 26.454 33.4916 23.6667 33.4934C23.2267 33.4934 22.7867 33.4934 22.3333 33.4934V20.16C22.7774 20.1344 23.2226 20.1344 23.6667 20.16C26.5112 20.1569 29.2936 20.9916 31.6667 22.56V35.4667ZM43.6667 33.5467C43.2133 33.5467 42.7733 33.5467 42.3333 33.5467C39.546 33.545 36.8002 34.2223 34.3333 35.52V22.56C36.7064 20.9916 39.4888 20.1569 42.3333 20.16C42.7774 20.1344 43.2226 20.1344 43.6667 20.16V33.5467ZM45.2267 39.08C44.2709 38.9154 43.3031 38.8307 42.3333 38.8267C39.0245 38.824 35.7847 39.7728 33 41.56C30.2154 39.7728 26.9755 38.824 23.6667 38.8267C22.6969 38.8307 21.7291 38.9154 20.7733 39.08C20.5998 39.1076 20.4334 39.1691 20.2837 39.2612C20.134 39.3533 20.004 39.4741 19.9012 39.6166C19.7983 39.7591 19.7247 39.9205 19.6844 40.0915C19.6442 40.2626 19.6381 40.4399 19.6667 40.6134C19.7344 40.9596 19.9367 41.2649 20.2291 41.4623C20.5215 41.6597 20.8802 41.7332 21.2267 41.6667C23.1374 41.3359 25.0949 41.3908 26.9841 41.8281C28.8732 42.2655 30.6558 43.0765 32.2267 44.2134C32.4525 44.3741 32.7228 44.4605 33 44.4605C33.2772 44.4605 33.5475 44.3741 33.7733 44.2134C35.3442 43.0765 37.1268 42.2655 39.0159 41.8281C40.9051 41.3908 42.8626 41.3359 44.7733 41.6667C45.1198 41.7332 45.4785 41.6597 45.7709 41.4623C46.0633 41.2649 46.2656 40.9596 46.3333 40.6134C46.3619 40.4399 46.3558 40.2626 46.3156 40.0915C46.2754 39.9205 46.2017 39.7591 46.0988 39.6166C45.996 39.4741 45.866 39.3533 45.7163 39.2612C45.5666 39.1691 45.4002 39.1076 45.2267 39.08Z" fill="#E7B505"/>
</svg>
