<svg width="221" height="60" viewBox="0 0 221 60" fill="none" xmlns="http://www.w3.org/2000/svg">
<path d="M47.048 30.088V28.28H47.464C47.5707 28.28 47.6987 28.28 47.848 28.28C48.008 28.28 48.168 28.28 48.328 28.28C48.4987 28.2693 48.6587 28.2587 48.808 28.248C48.968 28.2267 49.096 28.2053 49.192 28.184C49.5973 28.1093 49.9333 27.976 50.2 27.784C50.4773 27.5813 50.616 27.2933 50.616 26.92C50.616 26.44 50.44 26.1147 50.088 25.944C49.7467 25.7733 49.288 25.688 48.712 25.688C48.456 25.688 48.2 25.7093 47.944 25.752C47.6987 25.784 47.464 25.832 47.24 25.896C47.0267 25.96 46.8293 26.0293 46.648 26.104C46.4667 26.168 46.3173 26.232 46.2 26.296L45.608 24.28C45.7253 24.2267 45.896 24.1627 46.12 24.088C46.3547 24.0027 46.6267 23.928 46.936 23.864C47.2453 23.7893 47.5813 23.7307 47.944 23.688C48.3067 23.6347 48.6747 23.608 49.048 23.608C49.56 23.608 50.056 23.6507 50.536 23.736C51.0267 23.8213 51.464 23.9707 51.848 24.184C52.232 24.3973 52.5413 24.6853 52.776 25.048C53.0107 25.4107 53.128 25.8693 53.128 26.424C53.128 26.968 52.968 27.4747 52.648 27.944C52.328 28.4133 51.816 28.7547 51.112 28.968V29.064C51.8587 29.1813 52.44 29.4747 52.856 29.944C53.2827 30.4133 53.496 31.032 53.496 31.8C53.496 32.3973 53.3627 32.9147 53.096 33.352C52.8293 33.7787 52.4773 34.1307 52.04 34.408C51.6133 34.6853 51.1173 34.888 50.552 35.016C49.9973 35.1547 49.4267 35.224 48.84 35.224C48.456 35.224 48.0827 35.2027 47.72 35.16C47.368 35.128 47.0373 35.0853 46.728 35.032C46.4187 34.9787 46.1413 34.9147 45.896 34.84C45.6507 34.7653 45.448 34.6853 45.288 34.6L45.896 32.552C46.1627 32.6693 46.5467 32.7973 47.048 32.936C47.56 33.0747 48.168 33.144 48.872 33.144C49.1173 33.144 49.3627 33.1173 49.608 33.064C49.864 33.0107 50.0933 32.9253 50.296 32.808C50.4987 32.68 50.664 32.52 50.792 32.328C50.92 32.136 50.984 31.896 50.984 31.608C50.984 31.3627 50.936 31.1493 50.84 30.968C50.7547 30.7867 50.6 30.6373 50.376 30.52C50.1627 30.392 49.8693 30.296 49.496 30.232C49.1333 30.1573 48.68 30.1147 48.136 30.104C47.9973 30.104 47.8907 30.104 47.816 30.104C47.752 30.0933 47.6347 30.088 47.464 30.088H47.048ZM55.197 27.176C55.677 26.9627 56.2637 26.7867 56.957 26.648C57.661 26.5093 58.3863 26.44 59.133 26.44C59.7197 26.44 60.2103 26.5093 60.605 26.648C61.0103 26.7867 61.3303 26.9893 61.565 27.256C61.7997 27.512 61.965 27.8267 62.061 28.2C62.1677 28.5627 62.221 28.968 62.221 29.416C62.221 29.96 62.1997 30.4987 62.157 31.032C62.1143 31.5653 62.093 32.1307 62.093 32.728C62.093 33.1333 62.1197 33.528 62.173 33.912C62.2263 34.296 62.3117 34.664 62.429 35.016H60.605L60.237 33.768H60.045C59.7677 34.1413 59.4157 34.4613 58.989 34.728C58.5623 34.9947 58.013 35.128 57.341 35.128C56.9357 35.128 56.5623 35.0693 56.221 34.952C55.8903 34.8347 55.6023 34.6693 55.357 34.456C55.1223 34.232 54.9357 33.9707 54.797 33.672C54.669 33.3733 54.605 33.048 54.605 32.696C54.605 31.7467 54.9197 31.032 55.549 30.552C56.189 30.0613 57.1543 29.816 58.445 29.816C58.7437 29.816 59.0423 29.8427 59.341 29.896C59.6397 29.9387 59.8477 29.9707 59.965 29.992C59.997 29.768 60.013 29.576 60.013 29.416C60.013 29.0107 59.9117 28.712 59.709 28.52C59.5063 28.328 59.1277 28.232 58.573 28.232C58.061 28.232 57.5597 28.296 57.069 28.424C56.589 28.5413 56.1623 28.6907 55.789 28.872L55.197 27.176ZM58.125 33.336C58.6263 33.336 59.0263 33.2187 59.325 32.984C59.6237 32.7493 59.8423 32.504 59.981 32.248V31.288C59.9277 31.2667 59.8423 31.2453 59.725 31.224C59.6183 31.2027 59.4957 31.1813 59.357 31.16C59.229 31.1387 59.0957 31.1227 58.957 31.112C58.829 31.1013 58.7117 31.096 58.605 31.096C58.029 31.096 57.6023 31.2027 57.325 31.416C57.0477 31.6187 56.909 31.8747 56.909 32.184C56.909 32.568 57.0157 32.856 57.229 33.048C57.453 33.24 57.7517 33.336 58.125 33.336ZM67.5666 31.512H66.7826V35H64.5426V26.6H66.7826V30.232L67.5026 29.928L69.6466 26.6H72.0626C71.6893 27.112 71.3213 27.6293 70.9586 28.152C70.6066 28.664 70.2493 29.176 69.8866 29.688L68.8306 30.392L69.9506 31.08C70.356 31.7413 70.7666 32.3973 71.1826 33.048C71.5986 33.688 72.0093 34.3387 72.4146 35H69.8226L67.5666 31.512ZM73.4939 27.176C73.9739 26.9627 74.5605 26.7867 75.2539 26.648C75.9579 26.5093 76.6832 26.44 77.4299 26.44C78.0165 26.44 78.5072 26.5093 78.9019 26.648C79.3072 26.7867 79.6272 26.9893 79.8619 27.256C80.0965 27.512 80.2619 27.8267 80.3579 28.2C80.4645 28.5627 80.5179 28.968 80.5179 29.416C80.5179 29.96 80.4965 30.4987 80.4539 31.032C80.4112 31.5653 80.3899 32.1307 80.3899 32.728C80.3899 33.1333 80.4165 33.528 80.4699 33.912C80.5232 34.296 80.6085 34.664 80.7259 35.016H78.9019L78.5339 33.768H78.3419C78.0645 34.1413 77.7125 34.4613 77.2859 34.728C76.8592 34.9947 76.3099 35.128 75.6379 35.128C75.2325 35.128 74.8592 35.0693 74.5179 34.952C74.1872 34.8347 73.8992 34.6693 73.6539 34.456C73.4192 34.232 73.2325 33.9707 73.0939 33.672C72.9659 33.3733 72.9019 33.048 72.9019 32.696C72.9019 31.7467 73.2165 31.032 73.8459 30.552C74.4859 30.0613 75.4512 29.816 76.7419 29.816C77.0405 29.816 77.3392 29.8427 77.6379 29.896C77.9365 29.9387 78.1445 29.9707 78.2619 29.992C78.2939 29.768 78.3099 29.576 78.3099 29.416C78.3099 29.0107 78.2085 28.712 78.0059 28.52C77.8032 28.328 77.4245 28.232 76.8699 28.232C76.3579 28.232 75.8565 28.296 75.3659 28.424C74.8859 28.5413 74.4592 28.6907 74.0859 28.872L73.4939 27.176ZM76.4219 33.336C76.9232 33.336 77.3232 33.2187 77.6219 32.984C77.9205 32.7493 78.1392 32.504 78.2779 32.248V31.288C78.2245 31.2667 78.1392 31.2453 78.0219 31.224C77.9152 31.2027 77.7925 31.1813 77.6539 31.16C77.5259 31.1387 77.3925 31.1227 77.2539 31.112C77.1259 31.1013 77.0085 31.096 76.9019 31.096C76.3259 31.096 75.8992 31.2027 75.6219 31.416C75.3445 31.6187 75.2059 31.8747 75.2059 32.184C75.2059 32.568 75.3125 32.856 75.5259 33.048C75.7499 33.24 76.0485 33.336 76.4219 33.336ZM83.6875 31.512V30.008H84.7275C85.2075 30.008 85.5862 29.9333 85.8635 29.784C86.1408 29.624 86.2795 29.4107 86.2795 29.144C86.2795 28.8347 86.1568 28.6213 85.9115 28.504C85.6662 28.376 85.2822 28.312 84.7595 28.312C84.3008 28.312 83.8795 28.3707 83.4955 28.488C83.1222 28.5947 82.8128 28.7067 82.5675 28.824C82.4822 28.536 82.4075 28.264 82.3435 28.008C82.2902 27.7413 82.2208 27.464 82.1355 27.176C82.4875 26.9627 82.9622 26.7867 83.5595 26.648C84.1568 26.5093 84.7915 26.44 85.4635 26.44C86.4982 26.44 87.2662 26.6213 87.7675 26.984C88.2795 27.336 88.5355 27.848 88.5355 28.52C88.5355 28.712 88.5035 28.904 88.4395 29.096C88.3862 29.288 88.3008 29.4747 88.1835 29.656C88.0662 29.8267 87.9168 29.9867 87.7355 30.136C87.5542 30.2747 87.3408 30.3867 87.0955 30.472V30.6C87.7568 30.7387 88.2208 30.9787 88.4875 31.32C88.7542 31.6507 88.8875 32.0987 88.8875 32.664C88.8875 33.016 88.8075 33.3467 88.6475 33.656C88.4982 33.9547 88.2635 34.2213 87.9435 34.456C87.6235 34.6907 87.2182 34.872 86.7275 35C86.2475 35.1387 85.6768 35.208 85.0155 35.208C84.3755 35.208 83.8048 35.1387 83.3035 35C82.8022 34.8613 82.3915 34.7067 82.0715 34.536C82.1462 34.248 82.2262 33.96 82.3115 33.672C82.3968 33.384 82.4822 33.096 82.5675 32.808C82.8555 32.9573 83.2022 33.0853 83.6075 33.192C84.0235 33.288 84.4715 33.336 84.9515 33.336C86.0822 33.336 86.6475 33.0107 86.6475 32.36C86.6475 32.2107 86.6102 32.0827 86.5355 31.976C86.4715 31.8693 86.3595 31.784 86.1995 31.72C86.0395 31.6453 85.8208 31.592 85.5435 31.56C85.2768 31.528 84.9355 31.512 84.5195 31.512H83.6875ZM90.5408 27.176C91.0208 26.9627 91.6074 26.7867 92.3008 26.648C93.0048 26.5093 93.7301 26.44 94.4768 26.44C95.0634 26.44 95.5541 26.5093 95.9488 26.648C96.3541 26.7867 96.6741 26.9893 96.9088 27.256C97.1434 27.512 97.3088 27.8267 97.4048 28.2C97.5114 28.5627 97.5648 28.968 97.5648 29.416C97.5648 29.96 97.5434 30.4987 97.5008 31.032C97.4581 31.5653 97.4368 32.1307 97.4368 32.728C97.4368 33.1333 97.4634 33.528 97.5168 33.912C97.5701 34.296 97.6554 34.664 97.7728 35.016H95.9488L95.5808 33.768H95.3888C95.1114 34.1413 94.7594 34.4613 94.3328 34.728C93.9061 34.9947 93.3568 35.128 92.6848 35.128C92.2794 35.128 91.9061 35.0693 91.5648 34.952C91.2341 34.8347 90.9461 34.6693 90.7008 34.456C90.4661 34.232 90.2794 33.9707 90.1408 33.672C90.0128 33.3733 89.9488 33.048 89.9488 32.696C89.9488 31.7467 90.2634 31.032 90.8928 30.552C91.5328 30.0613 92.4981 29.816 93.7888 29.816C94.0874 29.816 94.3861 29.8427 94.6848 29.896C94.9834 29.9387 95.1914 29.9707 95.3088 29.992C95.3408 29.768 95.3568 29.576 95.3568 29.416C95.3568 29.0107 95.2554 28.712 95.0528 28.52C94.8501 28.328 94.4714 28.232 93.9168 28.232C93.4048 28.232 92.9034 28.296 92.4128 28.424C91.9328 28.5413 91.5061 28.6907 91.1328 28.872L90.5408 27.176ZM93.4688 33.336C93.9701 33.336 94.3701 33.2187 94.6688 32.984C94.9674 32.7493 95.1861 32.504 95.3248 32.248V31.288C95.2714 31.2667 95.1861 31.2453 95.0688 31.224C94.9621 31.2027 94.8394 31.1813 94.7008 31.16C94.5728 31.1387 94.4394 31.1227 94.3008 31.112C94.1728 31.1013 94.0554 31.096 93.9488 31.096C93.3728 31.096 92.9461 31.2027 92.6688 31.416C92.3914 31.6187 92.2528 31.8747 92.2528 32.184C92.2528 32.568 92.3594 32.856 92.5728 33.048C92.7968 33.24 93.0954 33.336 93.4688 33.336ZM106.414 28.584H103.806V35H101.47V28.584H98.8624V26.6H106.414V28.584ZM109.939 33.128C110.142 33.1707 110.339 33.2027 110.531 33.224C110.723 33.2347 110.904 33.24 111.075 33.24C112.27 33.24 112.867 32.856 112.867 32.088C112.867 31.3733 112.291 31.016 111.139 31.016C110.702 31.016 110.302 31.064 109.939 31.16V33.128ZM109.939 29.608C110.259 29.5547 110.584 29.5173 110.915 29.496C111.246 29.4747 111.523 29.464 111.747 29.464C112.366 29.464 112.894 29.5333 113.331 29.672C113.768 29.8 114.12 29.9813 114.387 30.216C114.664 30.4507 114.862 30.728 114.979 31.048C115.107 31.368 115.171 31.7093 115.171 32.072C115.171 32.5733 115.091 33.016 114.931 33.4C114.771 33.7733 114.52 34.088 114.179 34.344C113.838 34.6 113.39 34.792 112.835 34.92C112.291 35.048 111.63 35.112 110.851 35.112C110.179 35.112 109.592 35.1013 109.091 35.08C108.59 35.0693 108.126 35.048 107.699 35.016V26.6H109.939V29.608ZM121.438 31.512V30.008H122.478C122.958 30.008 123.336 29.9333 123.614 29.784C123.891 29.624 124.03 29.4107 124.03 29.144C124.03 28.8347 123.907 28.6213 123.661 28.504C123.416 28.376 123.032 28.312 122.51 28.312C122.051 28.312 121.63 28.3707 121.246 28.488C120.872 28.5947 120.563 28.7067 120.318 28.824C120.232 28.536 120.158 28.264 120.094 28.008C120.04 27.7413 119.971 27.464 119.886 27.176C120.238 26.9627 120.712 26.7867 121.31 26.648C121.907 26.5093 122.542 26.44 123.214 26.44C124.248 26.44 125.016 26.6213 125.518 26.984C126.03 27.336 126.286 27.848 126.286 28.52C126.286 28.712 126.254 28.904 126.19 29.096C126.136 29.288 126.051 29.4747 125.934 29.656C125.816 29.8267 125.667 29.9867 125.486 30.136C125.304 30.2747 125.091 30.3867 124.846 30.472V30.6C125.507 30.7387 125.971 30.9787 126.238 31.32C126.504 31.6507 126.638 32.0987 126.638 32.664C126.638 33.016 126.558 33.3467 126.398 33.656C126.248 33.9547 126.014 34.2213 125.694 34.456C125.374 34.6907 124.968 34.872 124.478 35C123.998 35.1387 123.427 35.208 122.766 35.208C122.126 35.208 121.555 35.1387 121.054 35C120.552 34.8613 120.142 34.7067 119.822 34.536C119.896 34.248 119.976 33.96 120.062 33.672C120.147 33.384 120.232 33.096 120.318 32.808C120.606 32.9573 120.952 33.0853 121.358 33.192C121.774 33.288 122.222 33.336 122.702 33.336C123.832 33.336 124.398 33.0107 124.398 32.36C124.398 32.2107 124.36 32.0827 124.286 31.976C124.222 31.8693 124.11 31.784 123.95 31.72C123.79 31.6453 123.571 31.592 123.294 31.56C123.027 31.528 122.686 31.512 122.27 31.512H121.438ZM128.371 26.6C128.808 26.568 129.32 26.536 129.907 26.504C130.493 26.472 131.139 26.456 131.843 26.456C133.165 26.456 134.104 26.632 134.659 26.984C135.213 27.336 135.491 27.8587 135.491 28.552C135.491 28.9467 135.368 29.3253 135.123 29.688C134.877 30.0507 134.493 30.3227 133.971 30.504V30.632C134.632 30.7707 135.112 31.0107 135.411 31.352C135.72 31.6827 135.875 32.1147 135.875 32.648C135.875 33.48 135.523 34.104 134.819 34.52C134.115 34.936 132.995 35.144 131.459 35.144C130.957 35.144 130.424 35.128 129.859 35.096C129.304 35.0747 128.808 35.0427 128.371 35V26.6ZM130.563 33.288C130.776 33.3307 130.957 33.3573 131.107 33.368C131.267 33.3787 131.453 33.384 131.667 33.384C132.392 33.384 132.893 33.2987 133.171 33.128C133.459 32.9467 133.603 32.6907 133.603 32.36C133.603 32.0613 133.48 31.8213 133.235 31.64C132.989 31.448 132.541 31.352 131.891 31.352H130.563V33.288ZM131.923 30.024C132.349 30.024 132.696 29.944 132.963 29.784C133.229 29.6133 133.363 29.3947 133.363 29.128C133.363 28.84 133.245 28.616 133.011 28.456C132.787 28.296 132.376 28.216 131.779 28.216C131.565 28.216 131.389 28.2213 131.251 28.232C131.112 28.2427 130.984 28.2533 130.867 28.264C130.824 28.264 130.771 28.2693 130.707 28.28C130.643 28.28 130.595 28.28 130.563 28.28V30.024H131.923ZM137.125 30.808C137.125 29.4213 137.493 28.3333 138.229 27.544C138.965 26.7547 140.016 26.36 141.381 26.36C142.096 26.36 142.72 26.472 143.253 26.696C143.786 26.92 144.229 27.2347 144.581 27.64C144.933 28.0347 145.194 28.504 145.365 29.048C145.546 29.5813 145.637 30.168 145.637 30.808C145.637 31.4907 145.541 32.1093 145.349 32.664C145.157 33.208 144.88 33.672 144.517 34.056C144.154 34.44 143.706 34.7333 143.173 34.936C142.65 35.1387 142.053 35.24 141.381 35.24C140.656 35.24 140.026 35.128 139.493 34.904C138.96 34.68 138.517 34.3707 138.165 33.976C137.813 33.5707 137.552 33.1013 137.381 32.568C137.21 32.024 137.125 31.4373 137.125 30.808ZM139.429 30.808C139.429 31.16 139.466 31.4907 139.541 31.8C139.616 32.1093 139.728 32.3813 139.877 32.616C140.037 32.84 140.24 33.0213 140.485 33.16C140.73 33.2987 141.029 33.368 141.381 33.368C142.682 33.368 143.333 32.5147 143.333 30.808C143.333 30.4347 143.296 30.0933 143.221 29.784C143.157 29.464 143.045 29.192 142.885 28.968C142.736 28.7333 142.533 28.552 142.277 28.424C142.032 28.296 141.733 28.232 141.381 28.232C140.773 28.232 140.293 28.4347 139.941 28.84C139.6 29.2453 139.429 29.9013 139.429 30.808ZM152.889 31.752H149.705V35H147.465V26.6H149.705V29.72H152.889V26.6H155.128V35H152.889V31.752ZM156.953 30.808C156.953 29.4213 157.321 28.3333 158.057 27.544C158.793 26.7547 159.844 26.36 161.209 26.36C161.924 26.36 162.548 26.472 163.081 26.696C163.615 26.92 164.057 27.2347 164.409 27.64C164.761 28.0347 165.023 28.504 165.193 29.048C165.375 29.5813 165.465 30.168 165.465 30.808C165.465 31.4907 165.369 32.1093 165.177 32.664C164.985 33.208 164.708 33.672 164.345 34.056C163.983 34.44 163.535 34.7333 163.001 34.936C162.479 35.1387 161.881 35.24 161.209 35.24C160.484 35.24 159.855 35.128 159.321 34.904C158.788 34.68 158.345 34.3707 157.993 33.976C157.641 33.5707 157.38 33.1013 157.209 32.568C157.039 32.024 156.953 31.4373 156.953 30.808ZM159.257 30.808C159.257 31.16 159.295 31.4907 159.369 31.8C159.444 32.1093 159.556 32.3813 159.705 32.616C159.865 32.84 160.068 33.0213 160.313 33.16C160.559 33.2987 160.857 33.368 161.209 33.368C162.511 33.368 163.161 32.5147 163.161 30.808C163.161 30.4347 163.124 30.0933 163.049 29.784C162.985 29.464 162.873 29.192 162.713 28.968C162.564 28.7333 162.361 28.552 162.105 28.424C161.86 28.296 161.561 28.232 161.209 28.232C160.601 28.232 160.121 28.4347 159.769 28.84C159.428 29.2453 159.257 29.9013 159.257 30.808ZM170.317 31.512H169.533V35H167.293V26.6H169.533V30.232L170.253 29.928L172.397 26.6H174.813C174.439 27.112 174.071 27.6293 173.709 28.152C173.357 28.664 172.999 29.176 172.637 29.688L171.581 30.392L172.701 31.08C173.106 31.7413 173.517 32.3973 173.933 33.048C174.349 33.688 174.759 34.3387 175.165 35H172.573L170.317 31.512Z" fill="#E76A05"/>
<rect x="1" y="1" width="219" height="58" rx="5" stroke="#E76A05" stroke-width="2"/>
</svg>
