<svg width="128" height="128" viewBox="0 0 128 128" fill="none" xmlns="http://www.w3.org/2000/svg">
<g id="Group 12">
<g id="Group 3">
<line id="Line 1" x1="0.360773" y1="0.639227" x2="5.42641" y2="5.70487" stroke="#E76A05" stroke-width="1.02042"/>
<line id="Line 2" x1="15.603" y1="0.639227" x2="20.6686" y2="5.70487" stroke="#E76A05" stroke-width="1.02042"/>
<line id="Line 3" x1="30.8442" y1="0.639227" x2="35.9098" y2="5.70487" stroke="#E76A05" stroke-width="1.02042"/>
<line id="Line 4" x1="46.0864" y1="0.639227" x2="51.152" y2="5.70487" stroke="#E76A05" stroke-width="1.02042"/>
<line id="Line 5" x1="61.3275" y1="0.639227" x2="66.3932" y2="5.70487" stroke="#E76A05" stroke-width="1.02042"/>
<line id="Line 6" x1="76.5698" y1="0.639227" x2="81.6354" y2="5.70487" stroke="#E76A05" stroke-width="1.02042"/>
<line id="Line 7" x1="91.811" y1="0.639227" x2="96.8766" y2="5.70487" stroke="#E76A05" stroke-width="1.02042"/>
<line id="Line 8" x1="107.053" y1="0.639227" x2="112.119" y2="5.70487" stroke="#E76A05" stroke-width="1.02042"/>
<line id="Line 9" x1="122.295" y1="0.639227" x2="127.361" y2="5.70487" stroke="#E76A05" stroke-width="1.02042"/>
</g>
<g id="Group 4">
<line id="Line 1_2" x1="0.360773" y1="15.8809" x2="5.42641" y2="20.9466" stroke="#E76A05" stroke-width="1.02042"/>
<line id="Line 2_2" x1="15.603" y1="15.8809" x2="20.6686" y2="20.9466" stroke="#E76A05" stroke-width="1.02042"/>
<line id="Line 3_2" x1="30.8442" y1="15.8809" x2="35.9098" y2="20.9466" stroke="#E76A05" stroke-width="1.02042"/>
<line id="Line 4_2" x1="46.0864" y1="15.8809" x2="51.152" y2="20.9466" stroke="#E76A05" stroke-width="1.02042"/>
<line id="Line 5_2" x1="61.3275" y1="15.8809" x2="66.3932" y2="20.9465" stroke="#E76A05" stroke-width="1.02042"/>
<line id="Line 6_2" x1="76.5698" y1="15.8809" x2="81.6354" y2="20.9466" stroke="#E76A05" stroke-width="1.02042"/>
<line id="Line 7_2" x1="91.811" y1="15.8809" x2="96.8766" y2="20.9466" stroke="#E76A05" stroke-width="1.02042"/>
<line id="Line 8_2" x1="107.053" y1="15.8809" x2="112.119" y2="20.9466" stroke="#E76A05" stroke-width="1.02042"/>
<line id="Line 9_2" x1="122.295" y1="15.8809" x2="127.361" y2="20.9466" stroke="#E76A05" stroke-width="1.02042"/>
</g>
<g id="Group 5">
<line id="Line 1_3" x1="0.360773" y1="31.1224" x2="5.42641" y2="36.188" stroke="#E76A05" stroke-width="1.02042"/>
<line id="Line 2_3" x1="15.603" y1="31.1224" x2="20.6686" y2="36.188" stroke="#E76A05" stroke-width="1.02042"/>
<line id="Line 3_3" x1="30.8442" y1="31.1224" x2="35.9098" y2="36.188" stroke="#E76A05" stroke-width="1.02042"/>
<line id="Line 4_3" x1="46.0864" y1="31.1224" x2="51.152" y2="36.188" stroke="#E76A05" stroke-width="1.02042"/>
<line id="Line 5_3" x1="61.3275" y1="31.1223" x2="66.3932" y2="36.188" stroke="#E76A05" stroke-width="1.02042"/>
<line id="Line 6_3" x1="76.5698" y1="31.1224" x2="81.6354" y2="36.188" stroke="#E76A05" stroke-width="1.02042"/>
<line id="Line 7_3" x1="91.811" y1="31.1224" x2="96.8766" y2="36.188" stroke="#E76A05" stroke-width="1.02042"/>
<line id="Line 8_3" x1="107.053" y1="31.1224" x2="112.119" y2="36.188" stroke="#E76A05" stroke-width="1.02042"/>
<line id="Line 9_3" x1="122.295" y1="31.1224" x2="127.361" y2="36.188" stroke="#E76A05" stroke-width="1.02042"/>
</g>
<g id="Group 6">
<line id="Line 1_4" x1="0.360773" y1="46.3643" x2="5.42641" y2="51.4299" stroke="#E76A05" stroke-width="1.02042"/>
<line id="Line 2_4" x1="15.603" y1="46.3643" x2="20.6686" y2="51.4299" stroke="#E76A05" stroke-width="1.02042"/>
<line id="Line 3_4" x1="30.8442" y1="46.3643" x2="35.9098" y2="51.4299" stroke="#E76A05" stroke-width="1.02042"/>
<line id="Line 4_4" x1="46.0864" y1="46.3643" x2="51.152" y2="51.4299" stroke="#E76A05" stroke-width="1.02042"/>
<line id="Line 5_4" x1="61.3275" y1="46.3642" x2="66.3932" y2="51.4299" stroke="#E76A05" stroke-width="1.02042"/>
<line id="Line 6_4" x1="76.5698" y1="46.3643" x2="81.6354" y2="51.4299" stroke="#E76A05" stroke-width="1.02042"/>
<line id="Line 7_4" x1="91.811" y1="46.3643" x2="96.8766" y2="51.4299" stroke="#E76A05" stroke-width="1.02042"/>
<line id="Line 8_4" x1="107.053" y1="46.3643" x2="112.119" y2="51.4299" stroke="#E76A05" stroke-width="1.02042"/>
<line id="Line 9_4" x1="122.295" y1="46.3643" x2="127.361" y2="51.4299" stroke="#E76A05" stroke-width="1.02042"/>
</g>
<g id="Group 7">
<line id="Line 1_5" x1="0.360773" y1="61.6057" x2="5.42641" y2="66.6714" stroke="#E76A05" stroke-width="1.02042"/>
<line id="Line 2_5" x1="15.603" y1="61.6057" x2="20.6686" y2="66.6714" stroke="#E76A05" stroke-width="1.02042"/>
<line id="Line 3_5" x1="30.8442" y1="61.6057" x2="35.9098" y2="66.6714" stroke="#E76A05" stroke-width="1.02042"/>
<line id="Line 4_5" x1="46.0864" y1="61.6057" x2="51.152" y2="66.6714" stroke="#E76A05" stroke-width="1.02042"/>
<line id="Line 5_5" x1="61.3275" y1="61.6057" x2="66.3932" y2="66.6713" stroke="#E76A05" stroke-width="1.02042"/>
<line id="Line 6_5" x1="76.5698" y1="61.6057" x2="81.6354" y2="66.6714" stroke="#E76A05" stroke-width="1.02042"/>
<line id="Line 7_5" x1="91.811" y1="61.6057" x2="96.8766" y2="66.6714" stroke="#E76A05" stroke-width="1.02042"/>
<line id="Line 8_5" x1="107.053" y1="61.6057" x2="112.119" y2="66.6714" stroke="#E76A05" stroke-width="1.02042"/>
<line id="Line 9_5" x1="122.295" y1="61.6057" x2="127.361" y2="66.6714" stroke="#E76A05" stroke-width="1.02042"/>
</g>
<g id="Group 8">
<line id="Line 1_6" x1="0.360773" y1="76.8474" x2="5.42641" y2="81.9131" stroke="#E76A05" stroke-width="1.02042"/>
<line id="Line 2_6" x1="14.6078" y1="76.8474" x2="19.6735" y2="81.9131" stroke="#E76A05" stroke-width="1.02042"/>
<line id="Line 3_6" x1="28.853" y1="76.8474" x2="33.9186" y2="81.9131" stroke="#E76A05" stroke-width="1.02042"/>
<line id="Line 4_6" x1="43.1" y1="76.8474" x2="48.1657" y2="81.9131" stroke="#E76A05" stroke-width="1.02042"/>
<line id="Line 5_6" x1="57.3461" y1="76.8474" x2="62.4118" y2="81.9131" stroke="#E76A05" stroke-width="1.02042"/>
<line id="Line 6_6" x1="71.5932" y1="76.8474" x2="76.6588" y2="81.9131" stroke="#E76A05" stroke-width="1.02042"/>
<line id="Line 7_6" x1="85.8383" y1="76.8474" x2="90.904" y2="81.9131" stroke="#E76A05" stroke-width="1.02042"/>
<line id="Line 8_6" x1="100.085" y1="76.8473" x2="105.151" y2="81.913" stroke="#E76A05" stroke-width="1.02042"/>
<line id="Line 9_6" x1="114.331" y1="76.8474" x2="119.397" y2="81.9131" stroke="#E76A05" stroke-width="1.02042"/>
</g>
<g id="Group 9">
<line id="Line 1_7" x1="0.360773" y1="92.0889" x2="5.42641" y2="97.1545" stroke="#E76A05" stroke-width="1.02042"/>
<line id="Line 2_7" x1="15.603" y1="92.0889" x2="20.6686" y2="97.1545" stroke="#E76A05" stroke-width="1.02042"/>
<line id="Line 3_7" x1="30.8442" y1="92.0889" x2="35.9098" y2="97.1545" stroke="#E76A05" stroke-width="1.02042"/>
<line id="Line 4_7" x1="46.0864" y1="92.0889" x2="51.152" y2="97.1545" stroke="#E76A05" stroke-width="1.02042"/>
<line id="Line 5_7" x1="61.3275" y1="92.0888" x2="66.3932" y2="97.1544" stroke="#E76A05" stroke-width="1.02042"/>
<line id="Line 6_7" x1="76.5698" y1="92.0889" x2="81.6354" y2="97.1545" stroke="#E76A05" stroke-width="1.02042"/>
<line id="Line 7_7" x1="91.811" y1="92.0889" x2="96.8766" y2="97.1545" stroke="#E76A05" stroke-width="1.02042"/>
<line id="Line 8_7" x1="107.053" y1="92.0889" x2="112.119" y2="97.1545" stroke="#E76A05" stroke-width="1.02042"/>
<line id="Line 9_7" x1="122.295" y1="92.0889" x2="127.361" y2="97.1545" stroke="#E76A05" stroke-width="1.02042"/>
</g>
<g id="Group 10">
<line id="Line 1_8" x1="0.360773" y1="107.331" x2="5.42641" y2="112.396" stroke="#E76A05" stroke-width="1.02042"/>
<line id="Line 2_8" x1="15.603" y1="107.331" x2="20.6686" y2="112.396" stroke="#E76A05" stroke-width="1.02042"/>
<line id="Line 3_8" x1="30.8442" y1="107.331" x2="35.9098" y2="112.396" stroke="#E76A05" stroke-width="1.02042"/>
<line id="Line 4_8" x1="46.0864" y1="107.331" x2="51.152" y2="112.396" stroke="#E76A05" stroke-width="1.02042"/>
<line id="Line 5_8" x1="61.3275" y1="107.331" x2="66.3932" y2="112.396" stroke="#E76A05" stroke-width="1.02042"/>
<line id="Line 6_8" x1="76.5698" y1="107.331" x2="81.6354" y2="112.396" stroke="#E76A05" stroke-width="1.02042"/>
<line id="Line 7_8" x1="91.811" y1="107.331" x2="96.8766" y2="112.396" stroke="#E76A05" stroke-width="1.02042"/>
<line id="Line 8_8" x1="107.053" y1="107.331" x2="112.119" y2="112.396" stroke="#E76A05" stroke-width="1.02042"/>
<line id="Line 9_8" x1="122.295" y1="107.331" x2="127.361" y2="112.396" stroke="#E76A05" stroke-width="1.02042"/>
</g>
<g id="Group 11">
<line id="Line 1_9" x1="0.360773" y1="122.572" x2="5.42641" y2="127.638" stroke="#E76A05" stroke-width="1.02042"/>
<line id="Line 2_9" x1="15.603" y1="122.572" x2="20.6686" y2="127.638" stroke="#E76A05" stroke-width="1.02042"/>
<line id="Line 3_9" x1="30.8442" y1="122.572" x2="35.9098" y2="127.638" stroke="#E76A05" stroke-width="1.02042"/>
<line id="Line 4_9" x1="46.0864" y1="122.572" x2="51.152" y2="127.638" stroke="#E76A05" stroke-width="1.02042"/>
<line id="Line 5_9" x1="61.3275" y1="122.572" x2="66.3932" y2="127.638" stroke="#E76A05" stroke-width="1.02042"/>
<line id="Line 6_9" x1="76.5698" y1="122.572" x2="81.6354" y2="127.638" stroke="#E76A05" stroke-width="1.02042"/>
<line id="Line 7_9" x1="91.811" y1="122.572" x2="96.8766" y2="127.638" stroke="#E76A05" stroke-width="1.02042"/>
<line id="Line 8_9" x1="107.053" y1="122.572" x2="112.119" y2="127.638" stroke="#E76A05" stroke-width="1.02042"/>
<line id="Line 9_9" x1="122.295" y1="122.572" x2="127.361" y2="127.638" stroke="#E76A05" stroke-width="1.02042"/>
</g>
</g>
</svg>
