<svg width="32" height="32" viewBox="0 0 32 32" fill="none" xmlns="http://www.w3.org/2000/svg">
<g id="fi:youtube">
<path id="Vector" d="M30.0538 8.56016C29.8954 7.92738 29.5728 7.34759 29.1186 6.87937C28.6645 6.41115 28.0948 6.07108 27.4671 5.8935C25.1738 5.3335 16.0004 5.3335 16.0004 5.3335C16.0004 5.3335 6.8271 5.3335 4.53377 5.94683C3.9061 6.12441 3.33641 6.46448 2.88223 6.9327C2.42806 7.40092 2.10549 7.98071 1.9471 8.6135C1.52739 10.9409 1.32208 13.3019 1.33377 15.6668C1.31881 18.0496 1.52413 20.4286 1.9471 22.7735C2.12172 23.3866 2.45151 23.9444 2.90463 24.3928C3.35774 24.8412 3.91886 25.1652 4.53377 25.3335C6.8271 25.9468 16.0004 25.9468 16.0004 25.9468C16.0004 25.9468 25.1738 25.9468 27.4671 25.3335C28.0948 25.1559 28.6645 24.8158 29.1186 24.3476C29.5728 23.8794 29.8954 23.2996 30.0538 22.6668C30.4702 20.3569 30.6755 18.0139 30.6671 15.6668C30.6821 13.2841 30.4767 10.9051 30.0538 8.56016V8.56016Z" stroke="#1B1010" stroke-width="2.4" stroke-linecap="round" stroke-linejoin="round"/>
<path id="Vector_2" d="M13 20.0266L20.6667 15.6666L13 11.3066V20.0266Z" stroke="#1B1010" stroke-width="2.4" stroke-linecap="round" stroke-linejoin="round"/>
</g>
</svg>
