<svg width="65" height="62" viewBox="0 0 65 62" fill="none" xmlns="http://www.w3.org/2000/svg">
<rect width="65" height="62" rx="10" fill="#FFEBE0"/>
<path d="M40.1194 22.2798C39.8029 22.2798 39.4936 22.3737 39.2304 22.5495C38.9673 22.7253 38.7622 22.9752 38.6411 23.2675C38.52 23.5599 38.4884 23.8816 38.5501 24.192C38.6118 24.5024 38.7642 24.7874 38.988 25.0112C39.2117 25.235 39.4968 25.3874 39.8072 25.4491C40.1176 25.5108 40.4393 25.4791 40.7316 25.358C41.024 25.2369 41.2739 25.0319 41.4497 24.7688C41.6255 24.5056 41.7194 24.1963 41.7194 23.8798C41.7194 23.4555 41.5508 23.0485 41.2507 22.7485C40.9507 22.4484 40.5437 22.2798 40.1194 22.2798ZM46.2527 25.5065C46.2268 24.4002 46.0196 23.3057 45.6393 22.2665C45.3003 21.3773 44.7727 20.5722 44.0927 19.9065C43.4324 19.2231 42.6254 18.6987 41.7327 18.3732C40.6962 17.9814 39.6005 17.7695 38.4927 17.7465C37.0794 17.6665 36.626 17.6665 32.9993 17.6665C29.3727 17.6665 28.9193 17.6665 27.506 17.7465C26.3982 17.7695 25.3025 17.9814 24.266 18.3732C23.3749 18.702 22.5686 19.2259 21.906 19.9065C21.2226 20.5667 20.6983 21.3738 20.3727 22.2665C19.9809 23.303 19.769 24.3987 19.746 25.5065C19.666 26.9198 19.666 27.3732 19.666 30.9998C19.666 34.6265 19.666 35.0798 19.746 36.4932C19.769 37.601 19.9809 38.6967 20.3727 39.7332C20.6983 40.6259 21.2226 41.4329 21.906 42.0932C22.5686 42.7738 23.3749 43.2976 24.266 43.6265C25.3025 44.0183 26.3982 44.2302 27.506 44.2532C28.9193 44.3332 29.3727 44.3332 32.9993 44.3332C36.626 44.3332 37.0794 44.3332 38.4927 44.2532C39.6005 44.2302 40.6962 44.0183 41.7327 43.6265C42.6254 43.3009 43.4324 42.7766 44.0927 42.0932C44.7757 41.4299 45.3038 40.6241 45.6393 39.7332C46.0196 38.694 46.2268 37.5994 46.2527 36.4932C46.2527 35.0798 46.3327 34.6265 46.3327 30.9998C46.3327 27.3732 46.3327 26.9198 46.2527 25.5065ZM43.8527 36.3332C43.843 37.1795 43.6897 38.0181 43.3993 38.8132C43.1865 39.3934 42.8445 39.9177 42.3993 40.3465C41.9669 40.7872 41.4437 41.1284 40.866 41.3465C40.071 41.6368 39.2324 41.7901 38.386 41.7998C37.0527 41.8665 36.5593 41.8798 33.0527 41.8798C29.546 41.8798 29.0527 41.8798 27.7193 41.7998C26.8405 41.8163 25.9655 41.681 25.1327 41.3998C24.5804 41.1706 24.0812 40.8302 23.666 40.3998C23.2235 39.9715 22.8858 39.4468 22.6793 38.8665C22.3538 38.06 22.1733 37.2024 22.146 36.3332C22.146 34.9998 22.066 34.5065 22.066 30.9998C22.066 27.4932 22.066 26.9998 22.146 25.6665C22.152 24.8012 22.3099 23.9438 22.6127 23.1332C22.8474 22.5704 23.2077 22.0687 23.666 21.6665C24.0711 21.2081 24.5717 20.844 25.1327 20.5998C25.9454 20.3066 26.802 20.1533 27.666 20.1465C28.9993 20.1465 29.4927 20.0665 32.9993 20.0665C36.506 20.0665 36.9993 20.0665 38.3327 20.1465C39.179 20.1562 40.0176 20.3095 40.8127 20.5998C41.4186 20.8247 41.9624 21.1903 42.3993 21.6665C42.8363 22.0761 43.1777 22.5768 43.3993 23.1332C43.6957 23.9451 43.8491 24.8022 43.8527 25.6665C43.9193 26.9998 43.9327 27.4932 43.9327 30.9998C43.9327 34.5065 43.9193 34.9998 43.8527 36.3332ZM32.9993 24.1598C31.6471 24.1625 30.326 24.5659 29.2029 25.3191C28.0798 26.0723 27.2052 27.1414 26.6895 28.3915C26.1739 29.6416 26.0403 31.0165 26.3057 32.3424C26.5712 33.6684 27.2237 34.8859 28.1808 35.8411C29.1379 36.7964 30.3567 37.4465 31.6832 37.7094C33.0096 37.9722 34.3842 37.836 35.6333 37.3179C36.8824 36.7998 37.9499 35.9231 38.7009 34.7985C39.4519 33.674 39.8527 32.3521 39.8527 30.9998C39.8544 30.1 39.6783 29.2086 39.3343 28.3771C38.9904 27.5456 38.4854 26.7903 37.8485 26.1546C37.2116 25.5189 36.4553 25.0154 35.6231 24.6731C34.7909 24.3307 33.8992 24.1563 32.9993 24.1598ZM32.9993 35.4398C32.1212 35.4398 31.2628 35.1794 30.5326 34.6916C29.8025 34.2037 29.2334 33.5103 28.8973 32.699C28.5613 31.8876 28.4733 30.9949 28.6447 30.1336C28.816 29.2724 29.2388 28.4812 29.8598 27.8603C30.4807 27.2393 31.2719 26.8165 32.1331 26.6452C32.9944 26.4738 33.8872 26.5618 34.6985 26.8978C35.5098 27.2339 36.2032 27.803 36.6911 28.5331C37.1789 29.2633 37.4394 30.1217 37.4394 30.9998C37.4394 31.5829 37.3245 32.1603 37.1014 32.699C36.8782 33.2376 36.5512 33.7271 36.1389 34.1394C35.7266 34.5517 35.2371 34.8787 34.6985 35.1019C34.1598 35.325 33.5824 35.4398 32.9993 35.4398Z" fill="#E76A05"/>
</svg>
