<svg width="65" height="62" viewBox="0 0 65 62" fill="none" xmlns="http://www.w3.org/2000/svg">
<rect width="65" height="62" rx="10" fill="#FFF0EE"/>
<path d="M41 25.6667H42.3333C43.7478 25.6667 45.1044 26.2286 46.1046 27.2288C47.1048 28.229 47.6667 29.5855 47.6667 31C47.6667 32.4145 47.1048 33.7711 46.1046 34.7713C45.1044 35.7715 43.7478 36.3334 42.3333 36.3334H41" stroke="#E35E5E" stroke-width="2.66667" stroke-linecap="round" stroke-linejoin="round"/>
<path d="M19.6667 25.6667H41V37.6667C41 39.0812 40.4381 40.4377 39.4379 41.4379C38.4377 42.4381 37.0812 43 35.6667 43H25C23.5855 43 22.229 42.4381 21.2288 41.4379C20.2286 40.4377 19.6667 39.0812 19.6667 37.6667V25.6667Z" stroke="#E35E5E" stroke-width="2.66667" stroke-linecap="round" stroke-linejoin="round"/>
<path d="M35.6667 16.3333V20.3333" stroke="#E35E5E" stroke-width="2.66667" stroke-linecap="round" stroke-linejoin="round"/>
<path d="M30.3333 16.3333V20.3333" stroke="#E35E5E" stroke-width="2.66667" stroke-linecap="round" stroke-linejoin="round"/>
<path d="M25 16.3333V20.3333" stroke="#E35E5E" stroke-width="2.66667" stroke-linecap="round" stroke-linejoin="round"/>
</svg>
