<svg width="155" height="60" viewBox="0 0 155 60" fill="none" xmlns="http://www.w3.org/2000/svg">
<g id="Logo">
<path id="Logo_2" fill-rule="evenodd" clip-rule="evenodd" d="M32.234 0.200506C31.5499 0.548603 30.992 1.25449 30.7216 2.11384C30.4219 3.06582 30.4072 4.91654 30.6889 6.23537C31.7171 11.0522 34.9047 15.1806 39.2309 17.2987L40.1549 17.7511L40.0917 18.5119C39.9438 20.2955 39.2371 22.8708 38.4072 24.6508C37.2655 27.0992 35.3933 29.2146 34.0364 29.5891C33.5263 29.7299 33.26 29.6224 33.0857 29.2053C32.4058 27.5791 34.2357 23.6721 37.2885 20.231C37.7053 19.7612 38.0464 19.356 38.0464 19.3306C38.0464 19.3052 37.5484 18.9671 36.9396 18.5792C35.8369 17.8766 35.8319 17.8747 35.5585 18.0542C35.4076 18.1534 34.7682 18.4837 34.1375 18.7881C32.2597 19.6949 30.5788 20.1941 29.3903 20.1978L28.8126 20.1996L28.6904 19.7568C28.5127 19.1125 28.2186 18.6959 27.8017 18.4982C26.663 17.9581 25.5081 18.734 25.686 19.9195C25.7782 20.5338 26.1178 21.0268 26.6519 21.3215L27.0801 21.5578L26.9242 22.2592C26.7274 23.1453 26.0999 24.6369 25.4908 25.6668C24.2666 27.7366 22.6678 29.2519 21.3661 29.5762C20.3666 29.8252 19.9439 29.2918 20.0453 27.9096C20.1901 25.9367 21.6293 23.1909 24.1596 20.0598C24.7542 19.3239 25.2256 18.7078 25.207 18.6906C24.9043 18.4123 23.0688 16.9711 23.0163 16.9705C22.9083 16.9693 21.36 18.961 20.5466 20.1475C19.5679 21.5752 18.7141 23.0764 18.1847 24.3004C17.689 25.4463 17.389 25.8081 16.1046 26.8092C13.7134 28.6728 10.9983 30.0101 10.4794 29.5797C9.7061 28.9382 11.6216 25.0787 16.898 16.6468C19.8635 11.9081 20.4304 10.7806 20.4304 9.62206C20.4304 8.05046 18.627 7.76019 16.4441 8.98035C14.0087 10.3417 11.0733 13.357 8.7119 16.9231C7.66911 18.4979 7.52214 18.8682 10.3676 12.75C13.1721 6.72017 13.1905 6.66578 12.6887 5.91499C12.0638 4.98 10.7907 4.98833 10.0922 5.93208C9.797 6.33081 8.81217 8.66601 6.46997 14.5213C4.19949 20.197 0 30.9379 0 31.0693C0 31.1114 0.590185 31.1326 1.3115 31.1166L2.62301 31.0874L3.32286 29.5237C4.84961 26.1127 7.12875 21.9673 9.0319 19.14C11.3729 15.6624 14.0893 12.7312 16.4482 11.137C16.8092 10.893 17.1221 10.7108 17.1435 10.7322C17.1649 10.7536 16.4793 11.8493 15.62 13.1671C10.4275 21.1305 7.32669 26.8951 7.02899 29.1384C6.90318 30.0863 7.31773 30.928 8.09127 31.2949C8.62768 31.5494 9.76875 31.53 10.7935 31.249C12.5328 30.772 14.5742 29.5825 16.3657 28.0021L17.3314 27.1502L17.261 27.62C17.2222 27.8783 17.2411 28.4057 17.3028 28.7919C17.5834 30.5477 18.6311 31.4909 20.2892 31.4807C22.0602 31.4697 24.0017 30.3407 25.6272 28.3762C27.2304 26.4388 28.1465 24.5299 28.7066 21.9598C28.7598 21.7154 28.8258 21.682 29.3669 21.6254C30.2147 21.5368 31.6929 21.0897 32.7037 20.6161C33.177 20.3945 33.5642 20.2287 33.5642 20.2477C33.5642 20.2667 33.2553 20.7346 32.8776 21.2874C31.6042 23.1515 30.6937 25.2729 30.4255 27.0009C30.2666 28.0249 30.3484 29.3041 30.6104 29.8904C31.7683 32.4824 35.5007 31.8382 38.1124 28.5956C39.3964 27.0014 40.3743 25.1324 41.1347 22.8195C41.5012 21.7047 42.0074 19.4171 42.0074 18.8754C42.0074 18.7059 42.0315 18.5433 42.0609 18.5138C42.0903 18.4844 42.4772 18.5652 42.9208 18.6931C43.3643 18.8211 44.208 19.0096 44.7957 19.112C45.3834 19.2144 45.8642 19.329 45.8642 19.3667C45.8642 19.4043 44.8043 22.0101 43.5087 25.1571C42.2133 28.3042 41.1294 30.9377 41.1001 31.0093C41.0593 31.1095 41.3582 31.1395 42.3976 31.1395H43.7481L45.1336 27.9598L46.5191 24.7802L47.677 23.6382C49.9307 21.4153 51.9723 20.0231 52.2707 20.5056C52.3819 20.6854 51.9568 21.5919 50.8508 23.5337C48.523 27.6205 48.0217 28.7541 48.0089 29.96C48.0016 30.6476 48.0253 30.7333 48.3018 31.0223C49.5647 32.3423 52.9099 30.9039 55.532 27.9136C55.996 27.3846 56.196 27.2132 56.1449 27.3887C55.713 28.8719 55.5434 29.7398 55.6051 30.1509C55.7359 31.0234 56.3449 31.4792 57.3763 31.4764C58.5891 31.4733 59.7738 30.7959 61.1881 29.297C61.6648 28.7918 62.0202 28.4722 61.9781 28.5869C61.7986 29.0752 61.7835 30.1563 61.9516 30.4812C62.3491 31.2495 63.3033 31.6437 64.3057 31.4536C65.0333 31.3157 66.129 30.7394 67.0361 30.0175C67.9295 29.3065 69.5361 27.6378 70.1768 26.7554C70.4208 26.4194 70.6438 26.1431 70.6725 26.1413C70.7012 26.1395 70.7084 26.6386 70.6886 27.2503C70.5871 30.3781 71.8087 31.82 74.2416 31.4442C75.3666 31.2705 76.3197 30.7191 77.4567 29.5842C78.5638 28.4789 79.3346 27.3737 80.1732 25.688L80.7268 24.5756H81.3805C81.7401 24.5756 82.0343 24.6151 82.0343 24.6636C82.0343 24.7119 81.4992 26.1772 80.8454 27.9195L79.6564 31.0874L80.9675 31.1167C81.8507 31.1365 82.3021 31.108 82.3506 31.0295C82.3902 30.9655 82.9561 29.4872 83.6081 27.7443L84.7934 24.5756H86.2804C87.0982 24.5756 87.7673 24.601 87.7673 24.6321C87.7673 24.6632 87.4668 25.4486 87.0995 26.3773C86.2239 28.5912 85.9766 29.4067 85.9775 30.0769C85.9784 30.7003 86.1643 31.0619 86.5956 31.2789C88.0258 31.9986 90.3915 30.9355 92.4846 28.6323C93.1646 27.8839 93.1859 27.8699 93.11 28.2222C93.0667 28.4228 93.0328 28.9385 93.0347 29.3683C93.0386 30.2472 93.2873 30.8718 93.7555 31.1785C94.4668 31.6443 95.8768 31.5799 97.0102 31.0299C98.2607 30.423 99.2886 28.9007 99.7148 27.024C100.013 25.7114 99.9545 23.8222 99.5859 22.8621C99.5214 22.6938 101.129 21.4701 102.308 20.7894C103.145 20.3067 104.433 19.7356 104.51 19.8129C104.533 19.8357 104.218 20.5532 103.81 21.4075C102.168 24.8467 101.094 27.5937 100.797 29.1134C100.614 30.0481 100.913 30.9157 101.533 31.2472C101.936 31.4629 102.73 31.5396 103.573 31.4442C105.025 31.2801 106.174 30.9347 108.586 29.9375L109.027 29.7552L109.443 30.1833C110.552 31.3257 112.563 31.7634 115.083 31.4106C115.746 31.3179 116.497 31.1809 116.751 31.1061L117.214 30.9702L117.179 30.4036C117.159 30.0921 117.129 29.8231 117.113 29.8059C117.096 29.7888 116.768 29.8293 116.385 29.8961C115.989 29.9651 115.115 29.999 114.366 29.9749C113.205 29.9374 112.971 29.8982 112.437 29.6521C111.875 29.3932 111.221 28.8437 111.221 28.6306C111.221 28.5808 111.633 28.2631 112.136 27.9246C116.099 25.2617 118.517 22.1545 118.517 19.7272C118.517 19.231 118.463 19.0041 118.28 18.7328C117.764 17.9668 116.922 17.6414 115.697 17.734C112.37 17.9856 109.657 20.5914 108.597 24.5549C108.435 25.1607 108.378 25.7261 108.361 26.8654L108.339 28.374L107.151 28.9328C105.728 29.6026 104.269 30.1056 103.678 30.1312L103.246 30.1497L103.255 29.5246C103.266 28.7478 103.702 27.629 105.553 23.6224C107.336 19.765 107.449 19.4088 107.101 18.7375C106.734 18.0267 105.643 17.8774 104.328 18.3579C102.945 18.8634 100.505 20.4499 98.6272 22.0655C97.6004 22.9489 97.5303 23.0693 97.6741 23.7029C97.7374 23.9823 97.7873 24.6797 97.7849 25.2528C97.7775 27.0365 97.1673 28.8465 96.3134 29.6175C95.8872 30.0025 95.3645 30.1225 95.209 29.8711C95.0754 29.6551 95.1503 28.762 95.3686 27.9669C95.8816 26.0973 97.8102 21.8386 99.1177 19.688C99.4106 19.2061 99.6503 18.7781 99.6503 18.737C99.6503 18.6322 97.5368 17.9129 97.4273 17.9806C97.2846 18.0687 95.2691 22.1984 94.6125 23.7478C93.9197 25.3828 93.2494 26.2988 91.6054 27.8575C90.2371 29.1548 88.9451 29.8712 88.7747 29.4273C88.5629 28.8758 89.886 25.5254 92.2027 20.7466C92.793 19.5289 93.2632 18.5326 93.2476 18.5326C93.232 18.5326 92.6872 18.4149 92.0368 18.2711C91.3866 18.1274 90.8187 18.0456 90.775 18.0893C90.7023 18.162 88.5175 22.9261 88.3618 23.3513C88.3024 23.5135 88.128 23.5337 86.7803 23.5337C85.9472 23.5337 85.2651 23.4985 85.2645 23.4555C85.2639 23.4125 85.6717 22.284 86.1709 20.9477C86.8672 19.0838 87.0471 18.4986 86.9437 18.4347C86.7746 18.3302 84.6494 17.86 84.6053 17.9173C84.5874 17.9405 84.1071 19.202 83.5381 20.7205L82.5034 23.4816L81.2294 23.5108L79.9554 23.54L79.4088 24.6048C77.9287 27.4874 76.2357 29.2829 74.7733 29.5211C73.7191 29.6928 73.3253 29.0068 73.3395 27.024C73.3502 25.5098 73.6246 24.0657 74.2701 22.1243C75.6778 17.8904 77.908 14.4324 80.4799 12.4953C80.9234 12.1613 81.3394 11.8703 81.4043 11.8486C81.5604 11.7966 80.933 10.4058 80.7534 10.4058C80.6807 10.4058 80.2942 10.5636 79.8945 10.7565C76.4076 12.4391 72.7532 17.6613 71.3346 22.9888C71.0722 23.9742 71.0503 24.012 70.1526 25.0395C68.9144 26.4563 66.7877 28.5101 66.0861 28.9664C65.459 29.3742 64.7956 29.6289 64.6289 29.5258C64.2793 29.3099 64.7476 27.832 65.9211 25.4473C66.6132 24.0405 68.7996 20.0388 69.2571 19.3411C69.4779 19.0042 69.5732 19.0583 68.0352 18.6465L66.9093 18.3451L66.667 18.7288C66.1717 19.5131 64.9341 21.776 64.207 23.2268C63.7942 24.0504 63.2254 25.0665 62.9431 25.4847C62.1908 26.599 60.9621 28.0263 60.2203 28.6477C59.251 29.4594 58.3495 29.8053 58.2023 29.4218C57.9998 28.8943 59.7687 24.9152 62.5005 19.7525C62.7672 19.2488 62.9597 18.8111 62.9284 18.7798C62.8532 18.7046 60.6807 17.9074 60.551 17.9074C60.4407 17.9074 58.3858 22.0592 57.5857 23.8983C57.0161 25.2077 56.9242 25.319 55.1065 26.9014C53.5248 28.2782 52.1365 29.2975 51.5131 29.5395C51.1115 29.6953 51.0474 29.697 50.9058 29.5554C50.773 29.4227 50.7671 29.3242 50.8693 28.945C51.0322 28.34 51.8641 26.6988 53.1604 24.4246C55.0404 21.1263 55.5582 19.9524 55.5582 18.9883C55.5582 18.6777 55.4877 18.4624 55.3236 18.2724C54.3709 17.1686 51.5151 18.3596 48.7684 21.0062C48.2603 21.4958 47.8447 21.8646 47.8447 21.826C47.8447 21.7872 48.1519 21.0463 48.5275 20.1796C49.2835 18.4345 49.2834 18.4327 48.4543 18.4299C47.3072 18.4262 44.7965 17.8813 43.0915 17.266L42.2471 16.9613L42.1838 15.1683C42.0605 11.6834 41.3397 8.60413 39.9897 5.7959C38.8404 3.40507 36.9973 1.25824 35.4068 0.458166C34.6662 0.0855841 34.5034 0.0445358 33.6348 0.0111951C32.8137 -0.0203743 32.6152 0.00650512 32.234 0.200506ZM34.7966 1.97058C37.1466 3.53926 39.1776 7.43647 39.9225 11.8071C40.1582 13.19 40.3227 15.8236 40.1734 15.8236C39.9527 15.8236 38.2215 14.4107 37.4907 13.6342C35.008 10.9962 33.1489 6.63421 33.1175 3.37297C33.1042 2.01236 33.2794 1.54966 33.8076 1.54966C34.0527 1.54966 34.3653 1.68271 34.7966 1.97058ZM116.93 19.68C116.821 20.8114 115.372 23.0372 113.709 24.6289C112.879 25.423 111.057 26.8606 110.874 26.8654C110.827 26.8667 110.821 26.5982 110.861 26.2686C111.167 23.7528 112.543 21.245 114.271 20.0557C115.02 19.5398 115.968 19.1632 116.524 19.1602L116.98 19.1577L116.93 19.68ZM74.0567 35.9814C73.7109 36.0567 73.2066 36.2223 72.9362 36.3493L72.4445 36.5803V37.7167V38.8531L72.9648 38.5896C74.7174 37.7018 76.9218 37.917 77.7476 39.0564C78.2849 39.7979 78.395 40.9211 78.0196 41.8335C77.8149 42.3311 77.1548 43.0037 76.5905 43.2895C76.3123 43.4303 75.7582 43.6193 75.3591 43.7094L74.6335 43.8732V44.9389V46.0044L75.2675 46.1806C76.8222 46.6127 77.9393 47.4861 78.5184 48.7224C78.9349 49.6116 79.0406 51.0012 78.7568 51.8553C78.2734 53.3099 76.8447 54.1684 74.915 54.1638C74.2005 54.1622 73.122 53.9389 72.6502 53.6951C72.2991 53.5137 72.3587 53.3974 72.0322 54.9012C71.8113 55.9187 71.79 55.8819 72.805 56.2395C74.1106 56.6995 76.0867 56.7223 77.5532 56.2941C79.3045 55.7828 80.6937 54.4122 81.2633 52.6335C81.5082 51.8685 81.5668 49.8947 81.3718 48.9787C81.0451 47.4441 80.0485 46.0185 78.7803 45.2716L78.1844 44.9207L78.7869 44.4529C80.3389 43.2483 81.0566 41.6052 80.7876 39.8729C80.5444 38.3061 79.8597 37.2715 78.5636 36.5121C77.5147 35.8977 75.5205 35.6629 74.0567 35.9814ZM57.6429 46.1428V56.3534H58.8701H60.0973L62.1137 49.555C63.9786 43.2679 64.4429 41.8549 64.2792 42.965C64.2455 43.1942 64.2112 46.2887 64.203 49.8415L64.1882 56.3013L65.3977 56.3307L66.6073 56.3599V46.1461V35.9322H65.4059C64.2219 35.9322 64.2033 35.936 64.106 36.1915C64.0518 36.3342 63.1328 39.3935 62.064 42.9899C60.995 46.5864 60.0893 49.5869 60.0511 49.6576C60.0129 49.7284 60.0005 46.6692 60.0236 42.8593L60.0655 35.9322H58.8542H57.6429V46.1428ZM87.9411 36.0017C87.9028 36.0398 87.8712 37.3878 87.8709 38.9972C87.8699 44.3528 87.5291 49.5305 86.9527 52.947L86.7735 54.0091L86.0717 54.0399L85.3699 54.0707V57.0354V60H86.514H87.6582L87.6866 58.2027L87.7152 56.4055L91.2332 56.3781L94.7512 56.3506V58.1753V60H95.9499H97.1486V57.0306V54.0612H96.419H95.6893V44.9967V35.9322H91.85C89.7382 35.9322 87.9792 35.9635 87.9411 36.0017ZM104.497 36.0625C104.472 36.1341 103.677 40.5061 102.73 45.7781C101.784 51.0501 100.968 55.5863 100.917 55.8585L100.824 56.3534H101.999H103.175L103.347 55.3896C103.442 54.8596 103.648 53.6991 103.805 52.8109L104.09 51.196L105.902 51.1674C106.898 51.1517 107.752 51.1781 107.8 51.226C107.873 51.2985 108.719 55.9265 108.719 56.2505C108.719 56.3125 109.219 56.3534 109.977 56.3534C111.126 56.3534 111.23 56.3375 111.181 56.171C111.151 56.0708 111.079 55.7074 111.02 55.3636C110.908 54.7076 110.233 50.9505 108.56 41.665C108.007 38.6006 107.533 36.057 107.506 36.0128C107.478 35.9685 106.8 35.9322 105.999 35.9322C104.928 35.9322 104.531 35.9667 104.497 36.0625ZM116.12 46.1428V56.3534H117.318H118.517V51.9253V47.4973H120.706H122.895V51.9253V56.3534H124.094H125.293V46.1428V35.9322H124.095H122.897L122.87 40.5426L122.843 45.153H120.706H118.569L118.542 40.5426L118.515 35.9322H117.317H116.12V46.1428ZM132.172 46.1428V56.3534H133.399H134.626L136.643 49.555C137.752 45.8158 138.694 42.692 138.737 42.6131C138.808 42.4816 138.789 48.5554 138.702 54.0872L138.666 56.3534H139.901H141.137V46.1428V35.9322H139.936C138.789 35.9322 138.73 35.9428 138.635 36.1666C138.58 36.2955 137.661 39.3548 136.592 42.965C135.523 46.5752 134.611 49.5973 134.566 49.6808C134.522 49.7642 134.511 46.705 134.543 42.8824L134.602 35.9322H133.387H132.172V46.1428ZM151.649 36.0896C149.188 36.5798 147.425 38.1533 146.806 40.4124C146.553 41.335 146.548 43.4315 146.796 44.3716C147.107 45.5479 147.742 46.695 148.518 47.4779C148.901 47.8649 149.387 48.3207 149.597 48.4906L149.979 48.7996L148.268 52.5394C147.327 54.5962 146.557 56.2959 146.557 56.3163C146.557 56.3367 147.136 56.3534 147.843 56.3534H149.129L150.811 52.5765L152.493 48.7996L152.496 52.5765L152.498 56.3534H153.749H155V46.1428V35.9322L153.671 35.942C152.94 35.9474 152.03 36.0138 151.649 36.0896ZM152.441 47.3808C152.312 47.5096 151.163 46.7938 150.595 46.2313C149.524 45.17 149.106 43.9431 149.183 42.0808C149.221 41.1683 149.276 40.8796 149.513 40.3597C149.997 39.302 151.005 38.4622 152.055 38.2442L152.446 38.1629L152.473 42.7422C152.488 45.2607 152.474 47.3482 152.441 47.3808ZM93.1876 46.1428V54.0612H91.2592C89.4572 54.0612 89.3309 54.0487 89.3309 53.8698C89.3309 53.7645 89.4229 52.8385 89.5354 51.8121C89.9321 48.192 90.2686 42.6962 90.2688 39.8307C90.2689 39.0236 90.3003 38.332 90.3385 38.2939C90.3767 38.2556 91.0334 38.2244 91.7978 38.2244H93.1876V46.1428ZM106.735 44.632C107.083 46.695 107.392 48.4884 107.42 48.6173C107.472 48.8517 107.472 48.8517 106.011 48.8517C104.912 48.8517 104.549 48.8193 104.547 48.7215C104.539 48.2869 105.969 40.5428 106.029 40.6959C106.068 40.7979 106.386 42.5691 106.735 44.632Z" fill="#1B1010"/>
</g>
</svg>
