<svg width="32" height="32" viewBox="0 0 32 32" fill="none" xmlns="http://www.w3.org/2000/svg">
<g id="u:instagram">
<path id="Vector" d="M23.1194 7.27984C22.8029 7.27984 22.4936 7.37368 22.2304 7.54949C21.9673 7.7253 21.7622 7.97518 21.6411 8.26754C21.52 8.55991 21.4884 8.88161 21.5501 9.19198C21.6118 9.50235 21.7642 9.78744 21.988 10.0112C22.2117 10.235 22.4968 10.3874 22.8072 10.4491C23.1176 10.5108 23.4393 10.4791 23.7316 10.358C24.024 10.2369 24.2739 10.0319 24.4497 9.76875C24.6255 9.50563 24.7194 9.19629 24.7194 8.87984C24.7194 8.45549 24.5508 8.04852 24.2507 7.74847C23.9507 7.44841 23.5437 7.27984 23.1194 7.27984ZM29.2527 10.5065C29.2268 9.40024 29.0196 8.30571 28.6393 7.2665C28.3003 6.37735 27.7727 5.57221 27.0927 4.9065C26.4324 4.22307 25.6254 3.69874 24.7327 3.37317C23.6962 2.98138 22.6005 2.76945 21.4927 2.7465C20.0794 2.6665 19.626 2.6665 15.9993 2.6665C12.3727 2.6665 11.9193 2.6665 10.506 2.7465C9.39822 2.76945 8.30247 2.98138 7.26602 3.37317C6.37492 3.70204 5.56859 4.22592 4.90602 4.9065C4.22258 5.56674 3.69825 6.37376 3.37268 7.2665C2.9809 8.30296 2.76896 9.39871 2.74602 10.5065C2.66602 11.9198 2.66602 12.3732 2.66602 15.9998C2.66602 19.6265 2.66602 20.0798 2.74602 21.4932C2.76896 22.601 2.9809 23.6967 3.37268 24.7332C3.69825 25.6259 4.22258 26.4329 4.90602 27.0932C5.56859 27.7738 6.37492 28.2976 7.26602 28.6265C8.30247 29.0183 9.39822 29.2302 10.506 29.2532C11.9193 29.3332 12.3727 29.3332 15.9993 29.3332C19.626 29.3332 20.0794 29.3332 21.4927 29.2532C22.6005 29.2302 23.6962 29.0183 24.7327 28.6265C25.6254 28.3009 26.4324 27.7766 27.0927 27.0932C27.7757 26.4299 28.3038 25.6241 28.6393 24.7332C29.0196 23.694 29.2268 22.5994 29.2527 21.4932C29.2527 20.0798 29.3327 19.6265 29.3327 15.9998C29.3327 12.3732 29.3327 11.9198 29.2527 10.5065ZM26.8527 21.3332C26.843 22.1795 26.6897 23.0181 26.3993 23.8132C26.1865 24.3934 25.8445 24.9177 25.3993 25.3465C24.9669 25.7872 24.4437 26.1284 23.866 26.3465C23.071 26.6368 22.2324 26.7901 21.386 26.7998C20.0527 26.8665 19.5593 26.8798 16.0527 26.8798C12.546 26.8798 12.0527 26.8798 10.7193 26.7998C9.84054 26.8163 8.96548 26.681 8.13268 26.3998C7.58039 26.1706 7.08116 25.8302 6.66602 25.3998C6.22347 24.9715 5.88581 24.4468 5.67935 23.8665C5.35382 23.06 5.17327 22.2024 5.14602 21.3332C5.14602 19.9998 5.06602 19.5065 5.06602 15.9998C5.06602 12.4932 5.06602 11.9998 5.14602 10.6665C5.15199 9.80124 5.30995 8.94376 5.61268 8.13317C5.84741 7.57039 6.2077 7.06872 6.66602 6.6665C7.0711 6.20806 7.57173 5.84397 8.13268 5.59984C8.94542 5.30656 9.80201 5.15328 10.666 5.1465C11.9993 5.1465 12.4927 5.0665 15.9993 5.0665C19.506 5.0665 19.9993 5.0665 21.3327 5.1465C22.179 5.15621 23.0176 5.3095 23.8127 5.59984C24.4186 5.82471 24.9624 6.1903 25.3993 6.6665C25.8363 7.07608 26.1777 7.57681 26.3993 8.13317C26.6957 8.94508 26.8491 9.80221 26.8527 10.6665C26.9193 11.9998 26.9327 12.4932 26.9327 15.9998C26.9327 19.5065 26.9193 19.9998 26.8527 21.3332ZM15.9993 9.15984C14.6471 9.16247 13.326 9.56587 12.2029 10.3191C11.0798 11.0723 10.2052 12.1414 9.68953 13.3915C9.17387 14.6416 9.04031 16.0165 9.30574 17.3424C9.57117 18.6684 10.2237 19.8859 11.1808 20.8411C12.1379 21.7964 13.3567 22.4465 14.6832 22.7094C16.0096 22.9722 17.3842 22.836 18.6333 22.3179C19.8824 21.7998 20.9499 20.9231 21.7009 19.7985C22.4519 18.674 22.8527 17.3521 22.8527 15.9998C22.8544 15.1 22.6783 14.2086 22.3343 13.3771C21.9904 12.5456 21.4854 11.7903 20.8485 11.1546C20.2116 10.5189 19.4553 10.0154 18.6231 9.67308C17.7909 9.33074 16.8992 9.15632 15.9993 9.15984ZM15.9993 20.4398C15.1212 20.4398 14.2628 20.1794 13.5326 19.6916C12.8025 19.2037 12.2334 18.5103 11.8973 17.699C11.5613 16.8876 11.4733 15.9949 11.6447 15.1336C11.816 14.2724 12.2388 13.4812 12.8598 12.8603C13.4807 12.2393 14.2719 11.8165 15.1331 11.6452C15.9944 11.4738 16.8872 11.5618 17.6985 11.8978C18.5098 12.2339 19.2032 12.803 19.6911 13.5331C20.1789 14.2633 20.4394 15.1217 20.4394 15.9998C20.4394 16.5829 20.3245 17.1603 20.1014 17.699C19.8782 18.2376 19.5512 18.7271 19.1389 19.1394C18.7266 19.5517 18.2371 19.8787 17.6985 20.1019C17.1598 20.325 16.5824 20.4398 15.9993 20.4398Z" fill="#1B1010"/>
</g>
</svg>
