<svg width="32" height="32" viewBox="0 0 32 32" fill="none" xmlns="http://www.w3.org/2000/svg">
<g id="u:vk-alt">
<path id="Vector" d="M20.2697 17.5854C19.9157 17.2026 19.5181 16.8625 19.0851 16.572C20.8324 15.221 22.057 13.3056 22.5499 11.1526C22.5863 10.997 22.5915 10.8357 22.5654 10.6781C22.5392 10.5205 22.4821 10.3696 22.3974 10.2341C22.3127 10.0986 22.202 9.98119 22.0717 9.88864C21.9415 9.79608 21.7942 9.7302 21.6384 9.69478C21.4826 9.65935 21.3213 9.65509 21.1638 9.68223C21.0064 9.70938 20.8558 9.76739 20.7209 9.85294C20.5859 9.93848 20.4692 10.0499 20.3774 10.1807C20.2857 10.3115 20.2207 10.4592 20.1862 10.6152C19.9567 11.6224 19.5102 12.5673 18.8779 13.3841C18.2457 14.201 17.4428 14.8701 16.5254 15.3448V10.8863C16.5179 10.7971 16.5001 10.7091 16.4724 10.624C16.4644 10.5539 16.4504 10.4847 16.4306 10.417C16.3789 10.3067 16.3108 10.205 16.2285 10.1153C16.2068 10.0895 16.1958 10.0556 16.1722 10.0318C16.0834 9.94982 15.9829 9.88157 15.8739 9.8293C15.843 9.81281 15.82 9.78492 15.7875 9.77113C15.6946 9.74019 15.5984 9.7204 15.5009 9.71216C15.4407 9.69455 15.3792 9.68191 15.317 9.67436L14.5239 9.6719H14.5204C14.2369 9.67055 13.9619 9.76912 13.7438 9.9503C13.5257 10.1315 13.3784 10.3837 13.3278 10.6627C13.2771 10.9417 13.3264 11.2296 13.4669 11.4758C13.6074 11.7221 13.8302 11.911 14.0961 12.0094V17.9369C12.1755 15.9432 10.9037 13.4145 10.4482 10.6839C10.4217 10.527 10.3644 10.3769 10.2798 10.2421C10.1952 10.1073 10.0849 9.99048 9.95516 9.89833C9.82541 9.80617 9.67879 9.74047 9.52365 9.70498C9.36851 9.66949 9.20791 9.66491 9.051 9.69149C8.89409 9.71807 8.74395 9.77529 8.60916 9.8599C8.47437 9.9445 8.35756 10.0548 8.2654 10.1846C8.17325 10.3143 8.10755 10.4609 8.07206 10.6161C8.03657 10.7712 8.03198 10.9318 8.05856 11.0887C8.76685 15.3096 11.1205 19.0771 14.6032 21.5647C14.6529 21.5945 14.7047 21.6206 14.7581 21.6428C14.8001 21.6675 14.8436 21.6894 14.8884 21.7085C15.0237 21.7626 15.1677 21.7917 15.3134 21.7943C15.4917 21.7921 15.6672 21.7499 15.8271 21.6709C15.8391 21.6652 15.853 21.6678 15.865 21.6618C15.9721 21.606 16.0702 21.5343 16.156 21.4493C16.1732 21.4325 16.1847 21.4119 16.201 21.3941C16.2792 21.3082 16.3445 21.2114 16.3948 21.1067C16.4117 21.0719 16.4271 21.0387 16.4406 21.0021C16.4939 20.8684 16.5226 20.7262 16.5254 20.5823L16.526 18.0056C17.2769 18.2261 17.9536 18.6472 18.4831 19.2235L20.4804 21.4013C20.5878 21.519 20.7174 21.6144 20.8618 21.6819C21.0061 21.7494 21.1624 21.7878 21.3216 21.7949C21.4808 21.8019 21.6398 21.7775 21.7896 21.723C21.9393 21.6685 22.0768 21.585 22.1943 21.4773C22.3117 21.3696 22.4068 21.2398 22.474 21.0953C22.5412 20.9508 22.5792 20.7945 22.5859 20.6352C22.5926 20.476 22.5678 20.3171 22.513 20.1674C22.4582 20.0178 22.3744 19.8804 22.2664 19.7632L20.2697 17.5854ZM19.4566 2.3999H12.0206C4.55808 2.3999 2.40039 4.55523 2.40039 12.0071V19.4437C2.40039 26.9062 4.55512 29.0639 12.0082 29.0639H19.4441C26.9067 29.0639 29.0644 26.9086 29.0644 19.4567V12.0202C29.0644 4.55759 26.9097 2.3999 19.4566 2.3999ZM26.6404 19.4567C26.6404 25.5652 25.5645 26.6399 19.4441 26.6399H12.0082C5.8985 26.6399 4.82439 25.564 4.82439 19.4437V12.0071C4.82439 5.89861 5.90028 4.8239 12.0206 4.8239H19.4566C25.5663 4.8239 26.6404 5.89979 26.6404 12.0202V19.4567Z" fill="#1B1010"/>
</g>
</svg>
